<svg width="73" height="82" viewBox="0 0 73 82" fill="none" xmlns="http://www.w3.org/2000/svg">
<path d="M24 67.6588V14.651C24 9.97563 29.1107 7.09667 33.1093 9.51955L66.409 29.6967C69.7533 31.723 70.2967 36.3556 67.5122 39.1008L34.2124 71.9314C30.4205 75.6699 24 72.9837 24 67.6588Z" fill="#FFEBB4"/>
<path d="M6.81406 39.04C6.81406 34.4267 7.5874 30.8267 9.13406 28.24C10.7074 25.6267 13.4007 24.32 17.2141 24.32C21.0274 24.32 23.7074 25.6267 25.2541 28.24C26.8274 30.8267 27.6141 34.4267 27.6141 39.04C27.6141 43.7067 26.8274 47.36 25.2541 50C23.7074 52.6133 21.0274 53.92 17.2141 53.92C13.4007 53.92 10.7074 52.6133 9.13406 50C7.5874 47.36 6.81406 43.7067 6.81406 39.04ZM23.1341 39.04C23.1341 36.88 22.9874 35.0533 22.6941 33.56C22.4274 32.0667 21.8674 30.8533 21.0141 29.92C20.1607 28.96 18.8941 28.48 17.2141 28.48C15.5341 28.48 14.2674 28.96 13.4141 29.92C12.5607 30.8533 11.9874 32.0667 11.6941 33.56C11.4274 35.0533 11.2941 36.88 11.2941 39.04C11.2941 41.28 11.4274 43.16 11.6941 44.68C11.9607 46.2 12.5207 47.4267 13.3741 48.36C14.2541 49.2933 15.5341 49.76 17.2141 49.76C18.8941 49.76 20.1607 49.2933 21.0141 48.36C21.8941 47.4267 22.4674 46.2 22.7341 44.68C23.0007 43.16 23.1341 41.28 23.1341 39.04ZM51.2391 28.76H37.8391V36.72C38.3991 35.9733 39.2257 35.3467 40.3191 34.84C41.4391 34.3333 42.6257 34.08 43.8791 34.08C46.1191 34.08 47.9324 34.56 49.3191 35.52C50.7324 36.48 51.7324 37.6933 52.3191 39.16C52.9324 40.6267 53.2391 42.1733 53.2391 43.8C53.2391 45.7733 52.8524 47.5333 52.0791 49.08C51.3324 50.6 50.1991 51.8 48.6791 52.68C47.1857 53.56 45.3457 54 43.1591 54C40.2524 54 37.9191 53.28 36.1591 51.84C34.3991 50.4 33.3457 48.4933 32.9991 46.12H37.4391C37.7324 47.3733 38.3857 48.3733 39.3991 49.12C40.4124 49.84 41.6791 50.2 43.1991 50.2C45.0924 50.2 46.5057 49.6267 47.4391 48.48C48.3991 47.3333 48.8791 45.8133 48.8791 43.92C48.8791 42 48.3991 40.5333 47.4391 39.52C46.4791 38.48 45.0657 37.96 43.1991 37.96C41.8924 37.96 40.7857 38.2933 39.8791 38.96C38.9991 39.6 38.3591 40.48 37.9591 41.6H33.6391V24.76H51.2391V28.76Z" fill="#FF9304"/>
</svg>
