<svg width="73" height="82" viewBox="0 0 73 82" fill="none" xmlns="http://www.w3.org/2000/svg">
<path d="M24 67.6588V14.651C24 9.97563 29.1107 7.09667 33.1093 9.51955L66.409 29.6967C69.7533 31.723 70.2967 36.3556 67.5122 39.1008L34.2124 71.9314C30.4205 75.6699 24 72.9837 24 67.6588Z" fill="#FFEBB4"/>
<path d="M12.5953 39.04C12.5953 34.4267 13.3686 30.8267 14.9153 28.24C16.4886 25.6267 19.182 24.32 22.9953 24.32C26.8086 24.32 29.4886 25.6267 31.0353 28.24C32.6086 30.8267 33.3953 34.4267 33.3953 39.04C33.3953 43.7067 32.6086 47.36 31.0353 50C29.4886 52.6133 26.8086 53.92 22.9953 53.92C19.182 53.92 16.4886 52.6133 14.9153 50C13.3686 47.36 12.5953 43.7067 12.5953 39.04ZM28.9153 39.04C28.9153 36.88 28.7686 35.0533 28.4753 33.56C28.2086 32.0667 27.6486 30.8533 26.7953 29.92C25.942 28.96 24.6753 28.48 22.9953 28.48C21.3153 28.48 20.0486 28.96 19.1953 29.92C18.342 30.8533 17.7686 32.0667 17.4753 33.56C17.2086 35.0533 17.0753 36.88 17.0753 39.04C17.0753 41.28 17.2086 43.16 17.4753 44.68C17.742 46.2 18.302 47.4267 19.1553 48.36C20.0353 49.2933 21.3153 49.76 22.9953 49.76C24.6753 49.76 25.942 49.2933 26.7953 48.36C27.6753 47.4267 28.2486 46.2 28.5153 44.68C28.782 43.16 28.9153 41.28 28.9153 39.04ZM37.6203 29V24.84H45.9403V54H41.3403V29H37.6203Z" fill="#FF9304"/>
</svg>
