<svg width="73" height="82" viewBox="0 0 73 82" fill="none" xmlns="http://www.w3.org/2000/svg">
<path d="M24 67.6588V14.651C24 9.97563 29.1107 7.09667 33.1093 9.51955L66.409 29.6967C69.7533 31.723 70.2967 36.3556 67.5122 39.1008L34.2124 71.9314C30.4205 75.6699 24 72.9837 24 67.6588Z" fill="#FFEBB4"/>
<path d="M7.7125 39.04C7.7125 34.4267 8.48583 30.8267 10.0325 28.24C11.6058 25.6267 14.2992 24.32 18.1125 24.32C21.9258 24.32 24.6058 25.6267 26.1525 28.24C27.7258 30.8267 28.5125 34.4267 28.5125 39.04C28.5125 43.7067 27.7258 47.36 26.1525 50C24.6058 52.6133 21.9258 53.92 18.1125 53.92C14.2992 53.92 11.6058 52.6133 10.0325 50C8.48583 47.36 7.7125 43.7067 7.7125 39.04ZM24.0325 39.04C24.0325 36.88 23.8858 35.0533 23.5925 33.56C23.3258 32.0667 22.7658 30.8533 21.9125 29.92C21.0592 28.96 19.7925 28.48 18.1125 28.48C16.4325 28.48 15.1658 28.96 14.3125 29.92C13.4592 30.8533 12.8858 32.0667 12.5925 33.56C12.3258 35.0533 12.1925 36.88 12.1925 39.04C12.1925 41.28 12.3258 43.16 12.5925 44.68C12.8592 46.2 13.4192 47.4267 14.2725 48.36C15.1525 49.2933 16.4325 49.76 18.1125 49.76C19.7925 49.76 21.0592 49.2933 21.9125 48.36C22.7925 47.4267 23.3658 46.2 23.6325 44.68C23.8992 43.16 24.0325 41.28 24.0325 39.04ZM33.2575 32.04C33.4175 29.56 34.3642 27.6267 36.0975 26.24C37.8575 24.8533 40.0975 24.16 42.8175 24.16C44.6842 24.16 46.2975 24.4933 47.6575 25.16C49.0175 25.8267 50.0442 26.7333 50.7375 27.88C51.4308 29.0267 51.7775 30.32 51.7775 31.76C51.7775 33.4133 51.3375 34.8267 50.4575 36C49.5775 37.1733 48.5242 37.96 47.2975 38.36V38.52C48.8708 39 50.0975 39.88 50.9775 41.16C51.8575 42.4133 52.2975 44.0267 52.2975 46C52.2975 47.5733 51.9375 48.9733 51.2175 50.2C50.4975 51.4267 49.4308 52.4 48.0175 53.12C46.6042 53.8133 44.9108 54.16 42.9375 54.16C40.0575 54.16 37.6842 53.4267 35.8175 51.96C33.9775 50.4667 32.9908 48.3333 32.8575 45.56H37.2575C37.3642 46.9733 37.9108 48.1333 38.8975 49.04C39.8842 49.92 41.2175 50.36 42.8975 50.36C44.5242 50.36 45.7775 49.92 46.6575 49.04C47.5375 48.1333 47.9775 46.9733 47.9775 45.56C47.9775 43.6933 47.3775 42.3733 46.1775 41.6C45.0042 40.8 43.1908 40.4 40.7375 40.4H39.6975V36.64H40.7775C42.9375 36.6133 44.5775 36.2533 45.6975 35.56C46.8442 34.8667 47.4175 33.7733 47.4175 32.28C47.4175 31 47.0042 29.9867 46.1775 29.24C45.3508 28.4667 44.1775 28.08 42.6575 28.08C41.1642 28.08 40.0042 28.4667 39.1775 29.24C38.3508 29.9867 37.8575 30.92 37.6975 32.04H33.2575Z" fill="#FF9304"/>
</svg>
