<svg width="73" height="82" viewBox="0 0 73 82" fill="none" xmlns="http://www.w3.org/2000/svg">
<path d="M24 67.6588V14.651C24 9.97563 29.1107 7.09667 33.1093 9.51955L66.409 29.6967C69.7533 31.723 70.2967 36.3556 67.5122 39.1008L34.2124 71.9314C30.4205 75.6699 24 72.9837 24 67.6588Z" fill="#FFEBB4"/>
<path d="M6.63828 39.04C6.63828 34.4267 7.41161 30.8267 8.95828 28.24C10.5316 25.6267 13.2249 24.32 17.0383 24.32C20.8516 24.32 23.5316 25.6267 25.0783 28.24C26.6516 30.8267 27.4383 34.4267 27.4383 39.04C27.4383 43.7067 26.6516 47.36 25.0783 50C23.5316 52.6133 20.8516 53.92 17.0383 53.92C13.2249 53.92 10.5316 52.6133 8.95828 50C7.41161 47.36 6.63828 43.7067 6.63828 39.04ZM22.9583 39.04C22.9583 36.88 22.8116 35.0533 22.5183 33.56C22.2516 32.0667 21.6916 30.8533 20.8383 29.92C19.9849 28.96 18.7183 28.48 17.0383 28.48C15.3583 28.48 14.0916 28.96 13.2383 29.92C12.3849 30.8533 11.8116 32.0667 11.5183 33.56C11.2516 35.0533 11.1183 36.88 11.1183 39.04C11.1183 41.28 11.2516 43.16 11.5183 44.68C11.7849 46.2 12.3449 47.4267 13.1983 48.36C14.0783 49.2933 15.3583 49.76 17.0383 49.76C18.7183 49.76 19.9849 49.2933 20.8383 48.36C21.7183 47.4267 22.2916 46.2 22.5583 44.68C22.8249 43.16 22.9583 41.28 22.9583 39.04ZM31.7033 47.92V44.48L45.1433 25.2H50.6633V43.96H54.3833V47.92H50.6633V54H46.1833V47.92H31.7033ZM46.3833 29.84L36.9433 43.96H46.3833V29.84Z" fill="#FF9304"/>
</svg>
