<svg width="73" height="82" viewBox="0 0 73 82" fill="none" xmlns="http://www.w3.org/2000/svg">
<path d="M24 67.6588V14.651C24 9.97563 29.1107 7.09667 33.1093 9.51955L66.409 29.6967C69.7533 31.723 70.2967 36.3556 67.5122 39.1008L34.2124 71.9314C30.4205 75.6699 24 72.9837 24 67.6588Z" fill="#FFEBB4"/>
<path d="M8.04453 39.04C8.04453 34.4267 8.81786 30.8267 10.3645 28.24C11.9379 25.6267 14.6312 24.32 18.4445 24.32C22.2579 24.32 24.9379 25.6267 26.4845 28.24C28.0579 30.8267 28.8445 34.4267 28.8445 39.04C28.8445 43.7067 28.0579 47.36 26.4845 50C24.9379 52.6133 22.2579 53.92 18.4445 53.92C14.6312 53.92 11.9379 52.6133 10.3645 50C8.81786 47.36 8.04453 43.7067 8.04453 39.04ZM24.3645 39.04C24.3645 36.88 24.2179 35.0533 23.9245 33.56C23.6579 32.0667 23.0979 30.8533 22.2445 29.92C21.3912 28.96 20.1245 28.48 18.4445 28.48C16.7645 28.48 15.4979 28.96 14.6445 29.92C13.7912 30.8533 13.2179 32.0667 12.9245 33.56C12.6579 35.0533 12.5245 36.88 12.5245 39.04C12.5245 41.28 12.6579 43.16 12.9245 44.68C13.1912 46.2 13.7512 47.4267 14.6045 48.36C15.4845 49.2933 16.7645 49.76 18.4445 49.76C20.1245 49.76 21.3912 49.2933 22.2445 48.36C23.1245 47.4267 23.6979 46.2 23.9645 44.68C24.2312 43.16 24.3645 41.28 24.3645 39.04ZM36.1895 47.8C38.7495 45.5867 40.7629 43.7733 42.2295 42.36C43.7229 40.92 44.9629 39.4267 45.9495 37.88C46.9362 36.3333 47.4295 34.7867 47.4295 33.24C47.4295 31.64 47.0429 30.3867 46.2695 29.48C45.5229 28.5733 44.3362 28.12 42.7095 28.12C41.1362 28.12 39.9095 28.6267 39.0295 29.64C38.1762 30.6267 37.7229 31.96 37.6695 33.64H33.2695C33.3495 30.6 34.2562 28.28 35.9895 26.68C37.7495 25.0533 39.9762 24.24 42.6695 24.24C45.5762 24.24 47.8429 25.04 49.4695 26.64C51.1229 28.24 51.9495 30.3733 51.9495 33.04C51.9495 34.96 51.4562 36.8133 50.4695 38.6C49.5095 40.36 48.3495 41.9467 46.9895 43.36C45.6562 44.7467 43.9495 46.36 41.8695 48.2L40.0695 49.8H52.7495V53.6H33.3095V50.28L36.1895 47.8Z" fill="#FF9304"/>
</svg>
