<svg width="123" height="22" viewBox="0 0 123 22" fill="none" xmlns="http://www.w3.org/2000/svg">
<path fill-rule="evenodd" clip-rule="evenodd" d="M88.1204 0.00202422C96.0262 -0.115791 99.6711 4.92503 99.6711 10.9993C99.6711 17.0749 95.5724 21.9683 88.1204 21.9999C80.6698 22.0277 76.5687 17.0749 76.5687 10.9993C76.5687 4.92503 80.2139 0.116816 88.1204 0.00202422ZM101.178 0.485621H112.555C112.555 0.485621 118.57 0.559647 118.879 5.74626C119.187 10.9329 114.981 11.791 114.981 11.791C116.609 13.1241 117.395 14.1942 118.014 15.2497C118.743 16.4914 119.235 17.7081 120.554 19.2196C121.56 20.3717 123 21.3611 123 21.3611L118.229 21.3472C115.986 21.3413 113.68 20.3842 112.634 17.8965C111.818 15.95 111.612 14.4072 111.128 13.4463C110.646 12.4847 109.623 11.2523 109.623 11.2523C109.623 11.2523 110.934 10.4808 111.805 9.74989C112.675 9.02284 113.212 7.1583 113.078 5.49742C112.944 3.83654 112.166 3.05006 111.176 2.52528C110.183 2.00259 108.488 2.14716 108.488 2.14716V19.3086C108.488 19.3086 109.048 19.9824 109.611 20.5048C110.173 21.0289 110.566 21.3302 110.566 21.3302L100.938 21.3191C100.938 21.3191 102.894 20.502 103.081 19.89C103.127 19.7419 103.138 18.619 103.137 16.9863C103.136 15.511 103.125 13.6166 103.121 11.6905C103.11 6.98314 103.121 2.00259 103.121 2.00259C103.121 2.00259 102.546 1.50547 101.981 1.12679C101.42 0.747908 101.178 0.485621 101.178 0.485621ZM53.0399 0.527638H62.4996C62.4996 0.527638 61.6636 1.00366 61.2074 1.45601C60.7513 1.90701 60.4703 2.24969 60.4703 2.24969V10.1238H68.0405V2.28479C68.0405 2.28479 67.6574 1.7117 67.1379 1.25837C66.6157 0.80619 66.1318 0.528715 66.1318 0.528715H75.5118C75.5118 0.528715 74.7211 0.995008 74.3605 1.28697C73.9971 1.57894 73.6353 2.0999 73.6219 2.25559C73.6094 2.41442 73.6219 19.6505 73.6219 19.6505C73.6219 19.6505 74.2375 20.291 74.6535 20.5983C75.0708 20.9034 75.5124 21.2968 75.5124 21.2968H65.7961C65.7961 21.2968 67.0563 20.3797 67.3646 20.118C67.6735 19.8545 68.0603 19.3878 68.0603 19.3878V11.7559H60.4506V19.4031C60.4506 19.4031 61.2366 20.3546 61.7166 20.707C62.1953 21.0608 62.7282 21.3114 62.7282 21.3114H53.1074C53.1074 21.3114 53.8841 20.8023 54.4541 20.3797C55.0232 19.9571 55.0624 19.3795 55.0624 19.3795V2.25559C55.0624 1.99911 53.889 1.18612 53.0399 0.527638ZM33.2878 0.532261H51.9991L52.0006 5.88076C52.0006 5.88076 51.3521 4.27131 50.4236 3.28569C49.4951 2.29938 48.6311 2.27714 48.6311 2.27714H45.365V19.7138C45.365 19.7138 45.7077 20.0766 46.3027 20.5937C46.8992 21.1157 47.3876 21.3854 47.3876 21.3854H37.9054C37.9054 21.3854 38.7709 20.8148 39.0947 20.5555C39.4194 20.2987 39.8299 19.769 39.8299 19.769V2.31954L36.4969 2.36298C36.4969 2.36298 35.3478 2.58089 34.5894 3.68258C33.8313 4.78358 33.3048 6.04931 33.3048 6.04931L33.2878 0.532261ZM18.5887 0.551514H27.9955C27.9955 0.551514 26.0706 1.75618 26.0466 1.79406C26.0235 1.83229 26.0466 19.6349 26.0466 19.6349C26.0466 19.6349 28.1169 19.9991 29.4974 19.7652C30.8757 19.5334 32.74 18.4553 33.5419 17.4652C34.3475 16.4733 35.1259 15.0175 35.1259 15.0175L34.4016 21.3976H18.4561L20.412 20.0318V1.95289C20.412 1.7965 19.7151 1.3587 18.5887 0.551514ZM0.327426 0.517767H15.362V4.46002C15.362 4.46002 14.6243 3.61099 13.8208 3.01705C12.8458 2.29625 12.2322 1.88547 10.6605 1.92231C9.45233 1.94941 7.85817 2.34352 7.85817 2.34352V10.357H11.7356C12.6753 10.357 14.1285 7.22851 14.1285 7.22851V15.0752C14.1285 15.0752 13.5807 14.0503 12.9365 13.1978C12.2922 12.346 11.7429 12.0676 11.7429 12.0676H7.85817V19.6325C7.85817 19.6325 9.56804 19.9442 10.8128 19.8278C12.0579 19.7131 12.9772 19.6908 13.9952 19.01C15.0132 18.3285 16.984 15.0672 16.984 15.0672L16.2202 21.3743H0C0.658748 20.974 0.970684 20.7818 1.33959 20.4954C1.63546 20.2678 1.9966 19.9842 2.39116 19.4451L2.38852 2.33553L0.327426 0.517767ZM88.1204 1.53167C91.79 1.43148 93.482 5.77128 93.482 10.9993C93.482 16.2297 91.5794 20.444 88.1204 20.469C84.6617 20.4926 82.7605 16.2297 82.7605 10.9993C82.7605 5.77128 84.4511 1.63246 88.1204 1.53167Z" fill="black"/>
</svg>
