<svg width="24" height="24" viewBox="0 0 24 24" fill="none" xmlns="http://www.w3.org/2000/svg">
<path d="M7.09992 0.333008H16.8999C20.6333 0.333008 23.6666 3.36634 23.6666 7.09968V16.8997C23.6666 18.6943 22.9537 20.4154 21.6847 21.6844C20.4157 22.9534 18.6946 23.6663 16.8999 23.6663H7.09992C3.36659 23.6663 0.333252 20.633 0.333252 16.8997V7.09968C0.333252 5.30504 1.04617 3.58391 2.31516 2.31492C3.58416 1.04592 5.30529 0.333008 7.09992 0.333008ZM6.86659 2.66634C5.75268 2.66634 4.68439 3.10884 3.89674 3.89649C3.10908 4.68415 2.66659 5.75243 2.66659 6.86634V17.133C2.66659 19.4547 4.54492 21.333 6.86659 21.333H17.1333C18.2472 21.333 19.3155 20.8905 20.1031 20.1029C20.8908 19.3152 21.3333 18.2469 21.3333 17.133V6.86634C21.3333 4.54467 19.4549 2.66634 17.1333 2.66634H6.86659ZM18.1249 4.41634C18.5117 4.41634 18.8826 4.56999 19.1561 4.84348C19.4296 5.11697 19.5833 5.4879 19.5833 5.87467C19.5833 6.26145 19.4296 6.63238 19.1561 6.90587C18.8826 7.17936 18.5117 7.33301 18.1249 7.33301C17.7381 7.33301 17.3672 7.17936 17.0937 6.90587C16.8202 6.63238 16.6666 6.26145 16.6666 5.87467C16.6666 5.4879 16.8202 5.11697 17.0937 4.84348C17.3672 4.56999 17.7381 4.41634 18.1249 4.41634ZM11.9999 6.16634C13.547 6.16634 15.0307 6.78092 16.1247 7.87489C17.2187 8.96885 17.8333 10.4526 17.8333 11.9997C17.8333 13.5468 17.2187 15.0305 16.1247 16.1245C15.0307 17.2184 13.547 17.833 11.9999 17.833C10.4528 17.833 8.96909 17.2184 7.87513 16.1245C6.78117 15.0305 6.16659 13.5468 6.16659 11.9997C6.16659 10.4526 6.78117 8.96885 7.87513 7.87489C8.96909 6.78092 10.4528 6.16634 11.9999 6.16634ZM11.9999 8.49967C11.0717 8.49967 10.1814 8.86842 9.52505 9.5248C8.86867 10.1812 8.49992 11.0714 8.49992 11.9997C8.49992 12.9279 8.86867 13.8182 9.52505 14.4745C10.1814 15.1309 11.0717 15.4997 11.9999 15.4997C12.9282 15.4997 13.8184 15.1309 14.4748 14.4745C15.1312 13.8182 15.4999 12.9279 15.4999 11.9997C15.4999 11.0714 15.1312 10.1812 14.4748 9.5248C13.8184 8.86842 12.9282 8.49967 11.9999 8.49967Z" fill="#A1A8AF"/>
</svg>
