<svg width="22" height="25" viewBox="0 0 22 25" fill="none" xmlns="http://www.w3.org/2000/svg">
<path fill-rule="evenodd" clip-rule="evenodd" d="M18 0.5C18.9283 0.5 19.8185 0.868749 20.4749 1.52513C21.1313 2.1815 21.5 3.07174 21.5 4V18C21.5 18.9283 21.1313 19.8185 20.4749 20.4749C19.8185 21.1313 18.9283 21.5 18 21.5H4C3.07174 21.5 2.1815 21.1313 1.52513 20.4749C0.868749 19.8185 0.5 18.9283 0.5 18V4C0.5 3.07174 0.868749 2.1815 1.52513 1.52513C2.1815 0.868749 3.07174 0.5 4 0.5H18ZM6.33333 8.66667C6.02391 8.66667 5.72717 8.78958 5.50838 9.00838C5.28958 9.22717 5.16667 9.52391 5.16667 9.83333V15.6667C5.16667 15.9761 5.28958 16.2728 5.50838 16.4916C5.72717 16.7104 6.02391 16.8333 6.33333 16.8333C6.64275 16.8333 6.9395 16.7104 7.15829 16.4916C7.37708 16.2728 7.5 15.9761 7.5 15.6667V9.83333C7.5 9.52391 7.37708 9.22717 7.15829 9.00838C6.9395 8.78958 6.64275 8.66667 6.33333 8.66667ZM9.83333 7.5C9.52391 7.5 9.22717 7.62292 9.00838 7.84171C8.78958 8.0605 8.66667 8.35725 8.66667 8.66667V15.6667C8.66667 15.9761 8.78958 16.2728 9.00838 16.4916C9.22717 16.7104 9.52391 16.8333 9.83333 16.8333C10.1428 16.8333 10.4395 16.7104 10.6583 16.4916C10.8771 16.2728 11 15.9761 11 15.6667V11.3967C11.3558 10.9953 11.9567 10.524 12.6252 10.2382C13.0137 10.0725 13.5982 10.0048 14.0042 10.1332C14.1389 10.1673 14.2588 10.2443 14.346 10.3525C14.4067 10.4342 14.5 10.6162 14.5 11V15.6667C14.5 15.9761 14.6229 16.2728 14.8417 16.4916C15.0605 16.7104 15.3572 16.8333 15.6667 16.8333C15.9761 16.8333 16.2728 16.7104 16.4916 16.4916C16.7104 16.2728 16.8333 15.9761 16.8333 15.6667V11C16.8333 10.2183 16.635 9.523 16.222 8.96533C15.842 8.45965 15.3101 8.08885 14.7042 7.90717C13.6518 7.577 12.4863 7.76017 11.7082 8.09383C11.459 8.20098 11.2164 8.32252 10.9813 8.45783C10.9324 8.18902 10.7907 7.9459 10.5809 7.77086C10.3711 7.59581 10.1066 7.49996 9.83333 7.5ZM6.33333 5.16667C6.02391 5.16667 5.72717 5.28958 5.50838 5.50838C5.28958 5.72717 5.16667 6.02391 5.16667 6.33333C5.16667 6.64275 5.28958 6.9395 5.50838 7.15829C5.72717 7.37708 6.02391 7.5 6.33333 7.5C6.64275 7.5 6.9395 7.37708 7.15829 7.15829C7.37708 6.9395 7.5 6.64275 7.5 6.33333C7.5 6.02391 7.37708 5.72717 7.15829 5.50838C6.9395 5.28958 6.64275 5.16667 6.33333 5.16667Z" fill="#A1A8AF"/>
</svg>
