<svg width="42" height="30" viewBox="0 0 42 30" fill="none" xmlns="http://www.w3.org/2000/svg">
<path d="M3.49992 0.416672H18.0833C18.8568 0.416672 19.5987 0.723963 20.1456 1.27094C20.6926 1.81792 20.9999 2.55979 20.9999 3.33334C20.9999 4.10689 20.6926 4.84875 20.1456 5.39573C19.5987 5.94271 18.8568 6.25 18.0833 6.25H3.49992C2.72637 6.25 1.9845 5.94271 1.43752 5.39573C0.890543 4.84875 0.583252 4.10689 0.583252 3.33334C0.583252 2.55979 0.890543 1.81792 1.43752 1.27094C1.9845 0.723963 2.72637 0.416672 3.49992 0.416672ZM23.9166 23.75H38.4999C39.2735 23.75 40.0153 24.0573 40.5623 24.6043C41.1093 25.1513 41.4166 25.8931 41.4166 26.6667C41.4166 27.4402 41.1093 28.1821 40.5623 28.7291C40.0153 29.276 39.2735 29.5833 38.4999 29.5833H23.9166C23.143 29.5833 22.4012 29.276 21.8542 28.7291C21.3072 28.1821 20.9999 27.4402 20.9999 26.6667C20.9999 25.8931 21.3072 25.1513 21.8542 24.6043C22.4012 24.0573 23.143 23.75 23.9166 23.75ZM3.49992 12.0833H38.4999C39.2735 12.0833 40.0153 12.3906 40.5623 12.9376C41.1093 13.4846 41.4166 14.2265 41.4166 15C41.4166 15.7736 41.1093 16.5154 40.5623 17.0624C40.0153 17.6094 39.2735 17.9167 38.4999 17.9167H3.49992C2.72637 17.9167 1.9845 17.6094 1.43752 17.0624C0.890543 16.5154 0.583252 15.7736 0.583252 15C0.583252 14.2265 0.890543 13.4846 1.43752 12.9376C1.9845 12.3906 2.72637 12.0833 3.49992 12.0833Z" fill="black"/>
</svg>
