<svg width="62" height="62" viewBox="0 0 62 62" fill="none" xmlns="http://www.w3.org/2000/svg">
<path d="M44.6768 33.6556C45.1205 33.3123 45.4796 32.8719 45.7267 32.3682C45.9738 31.8645 46.1022 31.311 46.1022 30.75C46.1022 30.189 45.9738 29.6354 45.7267 29.1317C45.4796 28.6281 45.1205 28.1877 44.6768 27.8443C38.931 23.3999 32.5159 19.896 25.6712 17.4636L24.4196 17.019C22.0276 16.1699 19.4995 17.7876 19.1756 20.2581C18.2709 27.2235 18.2709 34.2765 19.1756 41.2418C19.5014 43.7124 22.0276 45.3301 24.4196 44.481L25.6712 44.0363C32.5159 41.6039 38.931 38.1001 44.6768 33.6556Z" fill="white"/>
</svg>
