<svg width="28" height="26" viewBox="0 0 28 26" fill="none" xmlns="http://www.w3.org/2000/svg">
<path d="M4 0.75C1.79375 0.75 0 2.31953 0 4.25V21.75C0 23.6805 1.79375 25.25 4 25.25H24C26.2062 25.25 28 23.6805 28 21.75V4.25C28 2.31953 26.2062 0.75 24 0.75H4ZM22.5688 5.34375L16.0812 11.8297L23.7125 20.6562H17.7375L13.0625 15.3023L7.70625 20.6562H4.7375L11.675 13.7164L4.35625 5.34375H10.4812L14.7125 10.2383L19.6 5.34375H22.5688ZM20.2062 19.1031L9.5875 6.81484H7.81875L18.5562 19.1031H20.2H20.2062Z" fill="#A1A8AF"/>
</svg>
