<svg width="26" height="20" viewBox="0 0 26 20" fill="none" xmlns="http://www.w3.org/2000/svg">
<path fill-rule="evenodd" clip-rule="evenodd" d="M12.9999 0.841797C11.6104 0.841797 9.98992 0.874464 8.41025 0.918797L8.34609 0.92113C6.73842 0.96663 5.44109 1.0028 4.41909 1.17196C3.35392 1.34813 2.46959 1.6853 1.76259 2.41213C1.05325 3.1413 0.744085 4.04313 0.598252 5.1223C0.458252 6.16063 0.458252 7.47663 0.458252 9.1123V10.8903C0.458252 12.5236 0.458252 13.8396 0.598252 14.8791C0.742919 15.9583 1.05325 16.8601 1.76259 17.5893C2.46959 18.3173 3.35392 18.6533 4.41909 18.8295C5.44109 18.9986 6.73842 19.0348 8.34609 19.0803L8.41025 19.0826C9.99109 19.127 11.6104 19.1596 12.9999 19.1596C14.3894 19.1596 16.0099 19.127 17.5896 19.0826L17.6538 19.0803C19.2614 19.0348 20.5588 18.9986 21.5808 18.8295C22.6459 18.6533 23.5303 18.3161 24.2373 17.5893C24.9466 16.8601 25.2569 15.9583 25.4016 14.8791C25.5416 13.8408 25.5416 12.5248 25.5416 10.8891V9.11113C25.5416 7.47663 25.5416 6.16063 25.4016 5.1223C25.2569 4.04313 24.9466 3.1413 24.2373 2.41213C23.5303 1.68413 22.6459 1.34813 21.5808 1.17196C20.5588 1.0028 19.2614 0.96663 17.6526 0.92113L17.5896 0.918797C16.0601 0.872374 14.5301 0.846705 12.9999 0.841797ZM11.6839 13.093C11.5509 13.169 11.4002 13.2087 11.247 13.2082C11.0937 13.2077 10.9433 13.1669 10.8108 13.09C10.6783 13.0131 10.5682 12.9028 10.4917 12.77C10.4153 12.6372 10.375 12.4867 10.3749 12.3335V7.6668C10.375 7.51357 10.4153 7.36304 10.4917 7.23027C10.5682 7.0975 10.6783 6.98715 10.8108 6.91025C10.9433 6.83335 11.0937 6.7926 11.247 6.79208C11.4002 6.79157 11.5509 6.8313 11.6839 6.9073L15.7673 9.24063C15.9011 9.31719 16.0123 9.42776 16.0897 9.56113C16.167 9.6945 16.2078 9.84595 16.2078 10.0001C16.2078 10.1543 16.167 10.3058 16.0897 10.4391C16.0123 10.5725 15.9011 10.6831 15.7673 10.7596L11.6839 13.093Z" fill="#A1A8AF"/>
</svg>
